<svg width="50" height="50" viewBox="0 0 50 50" fill="none" xmlns="http://www.w3.org/2000/svg">
<g clip-path="url(#clip0_1_18)">
<path d="M12.5 39.5833C12.5 41.875 14.375 43.75 16.6667 43.75H33.3333C35.625 43.75 37.5 41.875 37.5 39.5833V14.5833H12.5V39.5833ZM17.625 24.75L20.5625 21.8125L25 26.2292L29.4167 21.8125L32.3542 24.75L27.9375 29.1667L32.3542 33.5833L29.4167 36.5208L25 32.1042L20.5833 36.5208L17.6458 33.5833L22.0625 29.1667L17.625 24.75ZM32.2917 8.33333L30.2083 6.25H19.7917L17.7083 8.33333H10.4167V12.5H39.5833V8.33333H32.2917Z" fill="black"/>
</g>
<defs>
<clipPath id="clip0_1_18">
<rect width="50" height="50" fill="white"/>
</clipPath>
</defs>
</svg>
